<svg width="48" height="48" viewBox="0 0 48 48" fill="none" xmlns="http://www.w3.org/2000/svg">
<path d="M22.1694 14.875C21.8531 14.875 21.5896 14.7696 21.3787 14.5588C21.1679 14.3479 21.0625 14.0789 21.0625 13.7516V9.12337C21.0625 8.79612 21.1698 8.52708 21.3843 8.31625C21.5988 8.10542 21.8646 8 22.1818 8H28.8918C29.2098 8 29.4738 8.10542 29.6838 8.31625C29.8937 8.52708 29.9991 8.79612 30 9.12337V13.7516C30 14.0798 29.8928 14.3488 29.6783 14.5588C29.4638 14.7696 29.1979 14.875 28.8808 14.875H22.1694ZM9.10687 19C8.79062 19 8.52708 18.8946 8.31625 18.6838C8.10542 18.4729 8 18.2117 8 17.9V9.1C8 8.78833 8.10725 8.52708 8.32175 8.31625C8.53625 8.10542 8.80208 8 9.11925 8H15.8293C16.1473 8 16.4113 8.10542 16.6213 8.31625C16.8312 8.52708 16.9366 8.78833 16.9375 9.1V17.9C16.9375 18.2117 16.8302 18.4729 16.6157 18.6838C16.4012 18.8946 16.1354 19 15.8182 19H9.10687ZM22.1694 30C21.8531 30 21.5896 29.8946 21.3787 29.6838C21.1679 29.4729 21.0625 29.2117 21.0625 28.9V20.1C21.0625 19.7883 21.1698 19.5271 21.3843 19.3162C21.5988 19.1054 21.8646 19 22.1818 19H28.8918C29.2098 19 29.4738 19.1054 29.6838 19.3162C29.8937 19.5271 29.9991 19.7883 30 20.1V28.9C30 29.2117 29.8928 29.4729 29.6783 29.6838C29.4638 29.8946 29.1979 30 28.8808 30H22.1694ZM9.10687 30C8.79062 30 8.52708 29.8946 8.31625 29.6838C8.10542 29.4729 8 29.2039 8 28.8766V24.2484C8 23.9211 8.10725 23.6521 8.32175 23.4412C8.53625 23.2304 8.80208 23.125 9.11925 23.125H15.8293C16.1473 23.125 16.4113 23.2304 16.6213 23.4412C16.8312 23.6521 16.9366 23.9211 16.9375 24.2484V28.8766C16.9375 29.2048 16.8302 29.4738 16.6157 29.6838C16.4012 29.8946 16.1354 30 15.8182 30H9.10687Z" fill="#0F172A"/>
</svg>
