<svg width="22" height="24" viewBox="0 0 22 24" fill="none" xmlns="http://www.w3.org/2000/svg">
<path d="M11 24C8.18889 24 5.73955 22.9835 3.652 20.9507C1.56444 18.9178 0.367481 16.3787 0.061111 13.3333H2.56667C2.85185 15.6444 3.79418 17.5555 5.39367 19.0667C6.99315 20.5778 8.86193 21.3333 11 21.3333C13.3833 21.3333 15.4053 20.428 17.0659 18.6173C18.7265 16.8067 19.5564 14.6009 19.5556 12C19.5547 9.39911 18.7248 7.19378 17.0659 5.384C15.4069 3.57422 13.385 2.66844 11 2.66667C9.59444 2.66667 8.28055 3.02222 7.05833 3.73333C5.83611 4.44444 4.80741 5.42222 3.97222 6.66666H7.33333V9.33333H0V1.33333H2.44444V4.46667C3.48333 3.04444 4.75159 1.94444 6.24922 1.16667C7.74685 0.388889 9.33044 0 11 0C12.5278 0 13.959 0.316889 15.2937 0.950666C16.6283 1.58444 17.7894 2.43955 18.777 3.516C19.7646 4.59244 20.5488 5.85911 21.1298 7.316C21.7107 8.77289 22.0008 10.3342 22 12C21.9992 13.6658 21.7091 15.2271 21.1298 16.684C20.5504 18.1409 19.7662 19.4076 18.777 20.484C17.7878 21.5604 16.6267 22.416 15.2937 23.0507C13.9606 23.6853 12.5294 24.0018 11 24ZM14.4222 17.6L9.77778 12.5333V5.33333H12.2222V11.4667L16.1333 15.7333L14.4222 17.6Z" fill="#B3B3B3"/>
</svg>
