<svg width="29" height="30" viewBox="0 0 29 30" fill="none" xmlns="http://www.w3.org/2000/svg">
<path d="M2 2H26.2232M2 14.4955H8.66137M2 26.9911H8.66137" stroke="#B3B3B3" stroke-width="4" stroke-linecap="round"/>
<path d="M18.6538 23.0863C20.019 23.0863 21.3282 22.3869 22.2935 21.142C23.2589 19.8971 23.8012 18.2086 23.8012 16.448C23.8012 14.6874 23.2589 12.999 22.2935 11.7541C21.3282 10.5091 20.019 9.80975 18.6538 9.80975C17.2886 9.80975 15.9793 10.5091 15.014 11.7541C14.0487 12.999 13.5063 14.6874 13.5063 16.448C13.5063 18.2086 14.0487 19.8971 15.014 21.142C15.9793 22.3869 17.2886 23.0863 18.6538 23.0863Z" stroke="#B3B3B3" stroke-width="4"/>
<path d="M21.9839 21.5243L26.2229 27.0301" stroke="#B3B3B3" stroke-width="4" stroke-linecap="round"/>
</svg>
