<svg width="28" height="33" viewBox="0 0 28 33" fill="none" xmlns="http://www.w3.org/2000/svg">
<path d="M13.9999 20.4883C16.1966 20.4883 17.9773 18.5265 17.9773 16.1064C17.9773 13.6863 16.1966 11.7245 13.9999 11.7245C11.8032 11.7245 10.0225 13.6863 10.0225 16.1064C10.0225 18.5265 11.8032 20.4883 13.9999 20.4883Z" stroke="#B3B3B3" stroke-width="3"/>
<path opacity="0.5" d="M16.3401 1.72202C15.8535 1.5 15.2357 1.5 14 1.5C12.7643 1.5 12.1465 1.5 11.6599 1.72202C11.338 1.86883 11.0455 2.0841 10.7991 2.35553C10.5528 2.62696 10.3573 2.94922 10.2241 3.30389C10.1021 3.62961 10.0531 4.01084 10.0345 4.56442C10.0259 4.96453 9.92525 5.3557 9.74208 5.70132C9.5589 6.04694 9.29914 6.33573 8.98711 6.54067C8.66998 6.73606 8.31304 6.83962 7.9497 6.84167C7.58635 6.84371 7.22848 6.74417 6.90956 6.55235C6.46409 6.29236 6.14191 6.14922 5.82239 6.10248C5.12544 6.0015 4.42061 6.20955 3.86284 6.68089C3.44654 7.03583 3.1363 7.62446 2.51847 8.8032C1.90064 9.98194 1.5904 10.5706 1.52278 11.1475C1.47722 11.528 1.50014 11.9145 1.59022 12.2852C1.68031 12.6559 1.8358 13.0034 2.04781 13.3078C2.24403 13.5883 2.51847 13.8234 2.94405 14.1185C3.57116 14.5523 3.97421 15.2914 3.97421 16.1064C3.97421 16.9214 3.57116 17.6605 2.94405 18.0929C2.51847 18.3894 2.2427 18.6245 2.04781 18.905C1.8358 19.2094 1.68031 19.5569 1.59022 19.9276C1.50014 20.2983 1.47722 20.6848 1.52278 21.0653C1.59173 21.6408 1.90064 22.2309 2.51714 23.4096C3.1363 24.5883 3.44521 25.177 3.86284 25.5319C4.13919 25.7655 4.4546 25.9368 4.79105 26.036C5.1275 26.1353 5.47841 26.1605 5.82372 26.1103C6.14191 26.0636 6.46409 25.9204 6.90956 25.6604C7.22848 25.4686 7.58635 25.3691 7.9497 25.3711C8.31304 25.3732 8.66998 25.4767 8.98711 25.6721C9.62747 26.0811 10.008 26.8333 10.0345 27.6484C10.0531 28.2034 10.1008 28.5832 10.2241 28.9089C10.3573 29.2636 10.5528 29.5858 10.7991 29.8573C11.0455 30.1287 11.338 30.344 11.6599 30.4908C12.1465 30.7128 12.7643 30.7128 14 30.7128C15.2357 30.7128 15.8535 30.7128 16.3401 30.4908C16.662 30.344 16.9545 30.1287 17.2009 29.8573C17.4472 29.5858 17.6427 29.2636 17.7759 28.9089C17.8979 28.5832 17.9469 28.2034 17.9655 27.6484C17.992 26.8333 18.3725 26.0797 19.0129 25.6721C19.33 25.4767 19.687 25.3732 20.0503 25.3711C20.4136 25.3691 20.7715 25.4686 21.0904 25.6604C21.5359 25.9204 21.8581 26.0636 22.1763 26.1103C22.5216 26.1605 22.8725 26.1353 23.2089 26.036C23.5454 25.9368 23.8608 25.7655 24.1372 25.5319C24.5548 25.1784 24.8637 24.5883 25.4815 23.4096C26.0994 22.2309 26.4096 21.6422 26.4772 21.0653C26.5228 20.6848 26.4999 20.2983 26.4098 19.9276C26.3197 19.5569 26.1642 19.2094 25.9522 18.905C25.756 18.6245 25.4815 18.3894 25.0559 18.0943C24.7456 17.886 24.4883 17.5944 24.3082 17.2467C24.128 16.8991 24.0308 16.5067 24.0258 16.1064C24.0258 15.2914 24.4288 14.5523 25.0559 14.1199C25.4815 13.8234 25.7573 13.5883 25.9522 13.3078C26.1642 13.0034 26.3197 12.6559 26.4098 12.2852C26.4999 11.9145 26.5228 11.528 26.4772 11.1475C26.4083 10.572 26.0994 9.98194 25.4829 8.8032C24.8637 7.62446 24.5548 7.03583 24.1372 6.68089C23.8608 6.44732 23.5454 6.27602 23.2089 6.17678C22.8725 6.07753 22.5216 6.05228 22.1763 6.10248C21.8581 6.14922 21.5359 6.29236 21.0891 6.55235C20.7704 6.74391 20.4127 6.84331 20.0496 6.84126C19.6866 6.83922 19.3299 6.7358 19.0129 6.54067C18.7009 6.33573 18.4411 6.04694 18.2579 5.70132C18.0747 5.3557 17.9741 4.96453 17.9655 4.56442C17.9469 4.00938 17.8992 3.62961 17.7759 3.30389C17.6427 2.94922 17.4472 2.62696 17.2009 2.35553C16.9545 2.0841 16.662 1.86883 16.3401 1.72202Z" stroke="#B3B3B3" stroke-width="3"/>
</svg>
